General
Complete name                    : How.I.Met.Your.Mother.S07E18.480p.HDTV.X264.mSD-KarMa.mp4
Format                           : MPEG-4 (x264)
File size                        : 177 MiB
Duration                         : 21mn 7s
Overall bit rate mode            : Variable
Overall bit rate                 : 1 169 Kbps
Encoded date                     : UTC 2012-02-28 07:10:11
-
Video
ID                               : 1
Format                           : AVC
Format/Info                      : Advanced Video Codec
Format profile                   : High@L3.0
Format settings, CABAC           : Yes
Format settings, ReFrames        : 4 frames
Codec ID                         : avc1
Codec ID/Info                    : Advanced Video Coding
Duration                         : 21mn 7s
Bit rate                         : 1 061 Kbps
Maximum bit rate                 : 3 990 Kbps
Width                            : 848 pixels
Height                           : 480 pixels
Display aspect ratio             : 16:9
Frame rate mode                  : Variable
Frame rate                       : 24.291 fps
Scan type                        : Progressive
Bits/(Pixel*Frame)               : 0.107
Stream size                      : 160 MiB (91%)
Writing library                  : x264 core 112
Encoding settings                : cabac=1 / ref=3 / deblock=1:0:0 / analyse=0x3:0x113 / me=umh / subme=9 / psy=1 / psy_rd=1.00:0.15 / mixed_ref=1 / me_range=26 / chroma_me=1 / trellis=1 
-
Audio
ID                               : 2
Format                           : AAC
Format/Info                      : Advanced Audio Codec
Format profile                   : HE-AAC / LC
Codec ID                         : 40
Duration                         : 21mn 6s
Bit rate mode                    : Variable
Bit rate                         : 104 Kbps
Maximum bit rate                 : 119 Kbps
Channel(s)                       : 2 channels
Channel positions                : Front: L R
Sampling rate                    : 48.0 KHz / 24.0 KHz
Compression mode                 : Lossy
Stream size                      : 15.7 MiB (9%)
 
http://imgcrave.com/u/ypX.png
 
http://imgcrave.com/u/ZRxB.png
 
http://imgcrave.com/u/m16ZS.png